<svg width="24" height="24" viewBox="0 0 24 24" fill="none" xmlns="http://www.w3.org/2000/svg">
<path opacity="0.45" fill-rule="evenodd" clip-rule="evenodd" d="M12 20.3333C18.6274 20.3333 24 16.08 24 10.8333C24 5.58661 18.6274 1.33331 12 1.33331C5.37258 1.33331 0 5.58661 0 10.8333C0 13.1425 1.0407 15.2592 2.77105 16.9057L0.999989 21.3333L3.49999 20.3333L6.22798 19.1642C7.94055 19.9094 9.90774 20.3333 12 20.3333Z" fill="white"/>
<path fill-rule="evenodd" clip-rule="evenodd" d="M16 21.3C11.5817 21.3 8 18.3227 8 14.65C8 10.9773 11.5817 8 16 8C20.4183 8 24 10.9773 24 14.65C24 16.2664 23.3062 17.7482 22.1526 18.9006L23.3333 22L19.4443 20.6538C18.4012 21.0681 17.2332 21.3 16 21.3Z" fill="white"/>
</svg>
