<svg xmlns="http://www.w3.org/2000/svg" width="338" height="82" viewBox="0 0 338 82">
    <g fill="none" fill-rule="evenodd">
        <rect width="338" height="82" fill="#FFF" rx="12"/>
        <g fill-rule="nonzero">
            <path fill="#353535" d="M46.967 53H34v-1.846h.132c.512 0 .99-.036 1.437-.108a2.865 2.865 0 0 0 1.163-.44c.329-.221.592-.54.79-.955.197-.415.296-.966.296-1.653V34.281c0-.644-.1-1.163-.297-1.557a2.249 2.249 0 0 0-.8-.912 3.054 3.054 0 0 0-1.174-.43 8.938 8.938 0 0 0-1.415-.107H34V29.43h6.911l.856 4.358h.22c.292-.658.592-1.277.899-1.857a6.136 6.136 0 0 1 1.13-1.524c.446-.436.998-.78 1.656-1.03.659-.25 1.485-.376 2.48-.376 1.637 0 2.855.28 3.652.837.798.558 1.196 1.346 1.196 2.362 0 .458-.077.88-.23 1.266-.154.387-.4.72-.735.999-.337.279-.768.494-1.295.644-.526.15-1.17.225-1.93.225 0-1.216-.176-2.093-.527-2.63-.351-.536-.966-.805-1.843-.805-.556 0-1.053.154-1.492.462a4.367 4.367 0 0 0-1.152 1.224 7.988 7.988 0 0 0-.834 1.75 15.64 15.64 0 0 0-.548 2.028 18.654 18.654 0 0 0-.297 2.072c-.058.687-.087 1.31-.087 1.868v6.912c0 .644.099 1.163.296 1.556a2.1 2.1 0 0 0 .8.891c.337.2.728.333 1.174.397a9.93 9.93 0 0 0 1.416.097h1.25V53zM77.249 47.784c0 .644.097 1.163.29 1.556.195.394.457.69.788.891.33.2.715.333 1.153.397.438.064.902.097 1.39.097H81v1.846h-7.007l-.582-3.564h-.215c-.446.83-.938 1.503-1.477 2.018-.539.515-1.11.92-1.713 1.213a6.807 6.807 0 0 1-1.898.601c-.66.107-1.35.161-2.07.161-1.164 0-2.199-.164-3.104-.494a5.495 5.495 0 0 1-2.285-1.546c-.618-.701-1.09-1.595-1.413-2.683-.323-1.087-.485-2.383-.485-3.885v-10.54c0-.645-.097-1.163-.29-1.557a2.237 2.237 0 0 0-.788-.912 2.97 2.97 0 0 0-1.153-.43 8.633 8.633 0 0 0-1.39-.107H55V29h7.912v15.177c0 .958.075 1.81.226 2.554.151.744.403 1.374.755 1.89a3.31 3.31 0 0 0 1.423 1.17c.596.264 1.34.396 2.23.396.978 0 1.815-.171 2.512-.515a4.633 4.633 0 0 0 1.725-1.449c.453-.622.787-1.37 1.003-2.243.216-.873.323-1.839.323-2.898v-9.058c0-.687-.097-1.242-.29-1.664-.195-.422-.453-.744-.777-.966a2.783 2.783 0 0 0-1.142-.44 8.774 8.774 0 0 0-1.412-.107h-.13V29h7.89v18.783zM93.747 31.24c-.857 0-1.551.121-2.082.363-.53.241-.945.582-1.243 1.022-.298.439-.498.96-.6 1.56-.101.6-.152 1.252-.152 1.955-1.236 0-2.177-.213-2.824-.637-.647-.425-.97-1.158-.97-2.197 0-.777.21-1.435.632-1.978.422-.542 1-.985 1.733-1.329.734-.344 1.588-.597 2.563-.757.974-.161 2.013-.242 3.118-.242 1.367 0 2.559.135 3.576.406 1.018.271 1.868.714 2.551 1.33.684.614 1.196 1.417 1.538 2.405.341.988.512 2.2.512 3.636v11.665c0 .63.051 1.15.153 1.56.102.41.261.74.48.988.218.25.505.425.861.528.357.102.782.154 1.276.154H105v1.889h-6.04l-.698-3.867h-.371a39.98 39.98 0 0 1-1.352 1.736 7.893 7.893 0 0 1-1.44 1.362 6.237 6.237 0 0 1-1.777.89c-.66.211-1.457.318-2.387.318a8.62 8.62 0 0 1-2.759-.428 5.802 5.802 0 0 1-2.202-1.318c-.618-.593-1.102-1.34-1.45-2.241-.35-.9-.524-1.966-.524-3.196 0-2.388.843-4.16 2.53-5.317 1.686-1.157 4.238-1.787 7.654-1.89l3.707-.131v-2.702c0-.806-.044-1.55-.131-2.23-.087-.681-.276-1.267-.567-1.758a2.935 2.935 0 0 0-1.254-1.142c-.545-.271-1.276-.407-2.192-.407zM88.34 47.036c0 1.406.294 2.457.883 3.153.589.695 1.501 1.043 2.737 1.043.901 0 1.719-.146 2.453-.439a5.226 5.226 0 0 0 1.875-1.252c.516-.542.912-1.201 1.189-1.978.276-.776.414-1.64.414-2.592v-3.647l-2.857.132c-1.265.059-2.322.216-3.173.473-.85.256-1.537.615-2.06 1.076a3.86 3.86 0 0 0-1.123 1.703c-.226.673-.338 1.45-.338 2.328zM119.87 51.153V53H108v-1.846h.366c.503 0 .973-.036 1.411-.107a2.783 2.783 0 0 0 1.142-.44c.323-.222.581-.54.775-.955.194-.415.291-.966.291-1.653V34.28c0-.645-.097-1.163-.29-1.557a2.236 2.236 0 0 0-.787-.912 2.964 2.964 0 0 0-1.152-.43 8.62 8.62 0 0 0-1.39-.107h-.13V29.43h7.131l.582 3.564h.215c.46-.816.944-1.485 1.454-2.007a6.34 6.34 0 0 1 1.616-1.224 6.113 6.113 0 0 1 1.809-.601c.64-.107 1.31-.161 2.014-.161 1.163 0 2.201.168 3.113.505a5.872 5.872 0 0 1 2.326 1.545c.64.695 1.127 1.585 1.465 2.673.337 1.087.506 2.383.506 3.886v10.39c0 .687.083 1.237.248 1.652.165.415.398.734.7.956.302.221.66.368 1.077.44.416.071.868.107 1.357.107H134V53h-7.69V37.823c0-.959-.087-1.81-.259-2.554-.172-.744-.448-1.374-.83-1.89a3.573 3.573 0 0 0-1.496-1.17c-.618-.264-1.372-.397-2.262-.397-1.005 0-1.85.193-2.531.58a4.606 4.606 0 0 0-1.648 1.567c-.416.658-.714 1.417-.894 2.276-.18.858-.269 1.76-.269 2.704v9.274c0 .644.097 1.163.29 1.557.195.393.457.69.787.89.33.201.714.333 1.152.398.438.064.902.096 1.39.096h.13zM158 30.307c0 .32-.046.621-.139.904-.092.284-.231.53-.416.74-.185.211-.424.378-.716.502a2.649 2.649 0 0 1-1.036.185c0-.174-.021-.349-.064-.523a1.454 1.454 0 0 0-.224-.49 1.169 1.169 0 0 0-.438-.37c-.185-.095-.427-.142-.726-.142-.37 0-.705.044-1.004.13-.299.088-.59.226-.876.415.499.624.908 1.36 1.229 2.21.32.85.48 1.913.48 3.19 0 1.104-.163 2.124-.491 3.06a6.684 6.684 0 0 1-1.463 2.429c-.648.682-1.467 1.216-2.457 1.6-.99.385-2.146.578-3.47.578-.171 0-.363-.004-.577-.011l-.64-.022a7.297 7.297 0 0 1-.599-.043 54.64 54.64 0 0 1-.448-.055 7.532 7.532 0 0 0-.812.48c-.256.174-.48.37-.673.588a2.628 2.628 0 0 0-.46.74 2.37 2.37 0 0 0-.17.915c0 .363.068.653.203.871.135.218.324.389.566.512.242.123.53.203.865.24.334.036.694.054 1.078.054h4.956c1.31 0 2.42.167 3.332.5.912.335 1.655.796 2.232 1.384a5.27 5.27 0 0 1 1.26 2.113c.264.82.395 1.71.395 2.668 0 1.277-.231 2.432-.694 3.463-.463 1.03-1.171 1.905-2.125 2.624-.954.719-2.161 1.274-3.62 1.666-1.46.392-3.18.588-5.159.588-3.047 0-5.325-.574-6.835-1.72-1.51-1.148-2.264-2.745-2.264-4.792 0-.87.15-1.633.448-2.287.3-.653.702-1.212 1.207-1.677a6.358 6.358 0 0 1 1.741-1.132 9.029 9.029 0 0 1 2.072-.631c-.299-.131-.59-.305-.876-.523a3.973 3.973 0 0 1-1.324-1.83 3.807 3.807 0 0 1-.213-1.306c0-.886.228-1.652.683-2.298.456-.646 1.182-1.274 2.179-1.884a5.597 5.597 0 0 1-1.677-1.078 6.56 6.56 0 0 1-1.239-1.568 7.748 7.748 0 0 1-.768-1.928 8.673 8.673 0 0 1-.267-2.156c0-1.293.17-2.447.513-3.463.341-1.017.854-1.88 1.538-2.592.683-.711 1.538-1.256 2.563-1.633 1.025-.378 2.228-.566 3.61-.566a10.106 10.106 0 0 1 2.979.446c.434.138.826.294 1.175.469.349.174.63.356.844.544.213-.232.463-.49.747-.773.285-.283.605-.544.961-.784s.744-.44 1.165-.599c.42-.159.872-.239 1.356-.239.442 0 .823.062 1.143.185.32.124.587.29.8.501.214.21.374.458.481.74.107.284.159.577.159.881zm-18.454 26.898c0 .654.085 1.263.256 1.83.17.566.47 1.052.897 1.459.427.406 1.004.726 1.73.958.726.232 1.645.348 2.755.348 1.566 0 2.859-.134 3.877-.402 1.018-.269 1.826-.643 2.424-1.122.598-.48 1.018-1.05 1.26-1.71.242-.66.363-1.383.363-2.167 0-.682-.095-1.245-.288-1.687a2.36 2.36 0 0 0-.855-1.046c-.377-.254-.843-.432-1.399-.534a10.77 10.77 0 0 0-1.922-.152h-4.293c-.613 0-1.207.054-1.784.163-.576.11-1.09.316-1.538.62-.448.306-.808.734-1.078 1.286s-.405 1.27-.405 2.156zm2.541-20.146c0 1.902.31 3.296.93 4.182.619.885 1.633 1.328 3.043 1.328.712 0 1.314-.109 1.805-.327a2.86 2.86 0 0 0 1.207-1.001c.313-.45.537-1.028.673-1.732.135-.704.203-1.542.203-2.515 0-2.004-.3-3.485-.897-4.443-.598-.958-1.61-1.437-3.034-1.437-1.41 0-2.417.49-3.022 1.47s-.908 2.471-.908 4.475z"/>
            <path fill="#ED2643" d="M184 40.682c0 2.128-.198 3.97-.596 5.523-.397 1.553-.978 2.833-1.743 3.84a6.95 6.95 0 0 1-2.838 2.232c-1.127.482-2.42.723-3.877.723-.852 0-1.625-.093-2.318-.28a6.757 6.757 0 0 1-3.346-2.028c-.427-.475-.799-1-1.116-1.575h-.282l-.78 3.451H160v-1.855h.347c.505 0 .978-.036 1.418-.108a2.8 2.8 0 0 0 1.148-.442c.325-.223.585-.543.78-.96.195-.417.293-.97.293-1.661V23.854c0-.647-.098-1.169-.293-1.564a2.248 2.248 0 0 0-.79-.917 2.862 2.862 0 0 0-1.16-.42 9.635 9.635 0 0 0-1.396-.098H160V19h8.166v8.112a80.916 80.916 0 0 1-.086 3.624c-.03.69-.058 1.402-.087 2.136h.174a10.95 10.95 0 0 1 1.126-1.834 6.476 6.476 0 0 1 1.451-1.391 6.556 6.556 0 0 1 1.863-.885c.693-.208 1.473-.313 2.34-.313 1.458 0 2.75.241 3.877.723a6.989 6.989 0 0 1 2.837 2.222c.766 1 1.347 2.269 1.744 3.808.397 1.538.595 3.365.595 5.48zm-9.812-9.407c-1.156 0-2.12.19-2.892.572-.773.38-1.39.96-1.852 1.736-.462.777-.79 1.755-.986 2.934-.195 1.18-.292 2.568-.292 4.164 0 1.539.097 2.898.292 4.078.195 1.18.528 2.171.997 2.977.47.805 1.09 1.413 1.863 1.823.773.41 1.744.614 2.913.614.982 0 1.816-.205 2.502-.614.686-.41 1.25-1.018 1.69-1.823.44-.806.762-1.802.963-2.988.202-1.187.304-2.557.304-4.11 0-1.568-.101-2.938-.304-4.11-.202-1.172-.523-2.147-.963-2.923-.44-.777-1.011-1.36-1.711-1.748-.701-.387-1.543-.582-2.524-.582zM199.256 54c-1.598 0-3.034-.274-4.308-.824a8.537 8.537 0 0 1-3.228-2.405c-.878-1.055-1.55-2.347-2.018-3.878-.468-1.53-.702-3.27-.702-5.217 0-4.204.85-7.367 2.548-9.49 1.698-2.124 4.116-3.186 7.254-3.186 1.425 0 2.706.227 3.843.681a7.492 7.492 0 0 1 2.893 2.032c.792.901 1.4 2.021 1.825 3.361.425 1.34.637 2.896.637 4.669v2.064h-14.725c.029 1.64.19 3.05.486 4.23.295 1.179.72 2.149 1.274 2.91.554.762 1.234 1.322 2.04 1.68.806.36 1.734.54 2.785.54.763 0 1.472-.088 2.127-.264a7.972 7.972 0 0 0 1.78-.703 7.347 7.347 0 0 0 1.415-1 5.78 5.78 0 0 0 1.004-1.175c.202.088.393.271.572.55.18.278.27.607.27.988 0 .454-.158.94-.475 1.46-.316.52-.798 1-1.446 1.44-.648.439-1.458.805-2.429 1.098-.971.293-2.112.439-3.422.439zm-.54-22.584c-1.64 0-2.904.677-3.79 2.032-.884 1.355-1.406 3.336-1.565 5.943h10.17c0-1.187-.087-2.27-.26-3.252-.172-.981-.446-1.823-.82-2.526-.374-.704-.867-1.245-1.479-1.626-.611-.38-1.363-.57-2.256-.57zM210.582 51.12c.522 0 1.01-.036 1.466-.109.455-.072.85-.222 1.186-.447.335-.226.604-.55.805-.973.201-.422.302-.983.302-1.682V23.917c0-.656-.1-1.184-.302-1.585a2.29 2.29 0 0 0-.817-.928 2.991 2.991 0 0 0-1.196-.426 10.147 10.147 0 0 0-1.444-.099H210V19h8.66v28.909c0 .7.097 1.26.29 1.682.194.423.463.747.806.973.343.226.742.375 1.197.447.455.073.943.11 1.465.11H223V53h-13v-1.88h.582zM235.747 31.24c-.858 0-1.552.121-2.082.363-.531.241-.945.582-1.243 1.022-.298.439-.498.96-.6 1.56-.102.6-.153 1.252-.153 1.955-1.235 0-2.177-.213-2.823-.637-.647-.425-.97-1.158-.97-2.197 0-.777.21-1.435.631-1.978.422-.542 1-.985 1.734-1.329s1.588-.597 2.562-.757c.974-.161 2.014-.242 3.119-.242 1.366 0 2.558.135 3.576.406 1.018.271 1.868.714 2.551 1.33.684.614 1.196 1.417 1.538 2.405.341.988.512 2.2.512 3.636v11.665c0 .63.051 1.15.153 1.56.102.41.261.74.48.988.218.25.505.425.861.528.357.102.782.154 1.276.154H247v1.889h-6.04l-.698-3.867h-.371a39.98 39.98 0 0 1-1.352 1.736 7.878 7.878 0 0 1-1.44 1.362 6.237 6.237 0 0 1-1.777.89c-.66.211-1.457.318-2.387.318a8.62 8.62 0 0 1-2.759-.428 5.802 5.802 0 0 1-2.202-1.318c-.618-.593-1.102-1.34-1.45-2.241-.35-.9-.524-1.966-.524-3.196 0-2.388.843-4.16 2.53-5.317 1.686-1.157 4.238-1.787 7.654-1.89l3.707-.131v-2.702c0-.806-.044-1.55-.131-2.23-.087-.681-.276-1.267-.567-1.758a2.935 2.935 0 0 0-1.254-1.142c-.546-.271-1.276-.407-2.192-.407zm-5.408 15.796c0 1.406.294 2.457.883 3.153.589.695 1.501 1.043 2.737 1.043.901 0 1.719-.146 2.453-.439a5.226 5.226 0 0 0 1.875-1.252c.516-.542.913-1.201 1.189-1.978.276-.776.414-1.64.414-2.592v-3.647l-2.857.132c-1.265.059-2.322.216-3.173.473-.85.256-1.537.615-2.06 1.076a3.86 3.86 0 0 0-1.123 1.703c-.226.673-.338 1.45-.338 2.328zM257.735 28.84v23.934c0 1.976-.222 3.62-.666 4.93-.444 1.31-1.064 2.356-1.863 3.137a6.791 6.791 0 0 1-2.849 1.665c-1.101.329-2.31.494-3.625.494H248v-2.084h.333c.813 0 1.537-.133 2.173-.398.636-.264 1.172-.709 1.608-1.331.436-.623.768-1.454.997-2.493.23-1.038.344-2.33.344-3.878v-19.12c0-.646-.1-1.165-.3-1.559-.199-.394-.469-.698-.808-.913a3.108 3.108 0 0 0-1.187-.43 9.121 9.121 0 0 0-1.43-.107h-.133V28.84h8.138zm-4.901-7.133c0-.515.066-.945.2-1.289.132-.343.313-.622.542-.838.23-.215.503-.365.82-.451a3.86 3.86 0 0 1 1.01-.129c.355 0 .691.043 1.009.129.317.086.591.236.82.451.23.215.414.495.554.838.14.344.211.774.211 1.29 0 .515-.07.945-.21 1.288-.141.344-.326.623-.555.838-.23.215-.503.37-.82.463-.318.093-.655.14-1.009.14-.355 0-.691-.047-1.01-.14a2 2 0 0 1-.82-.463 2.234 2.234 0 0 1-.543-.838c-.133-.343-.2-.773-.2-1.289zM273.747 31.24c-.858 0-1.552.121-2.082.363-.53.241-.945.582-1.243 1.022-.298.439-.498.96-.6 1.56-.102.6-.153 1.252-.153 1.955-1.235 0-2.177-.213-2.823-.637-.647-.425-.97-1.158-.97-2.197 0-.777.21-1.435.631-1.978.422-.541 1-.985 1.734-1.329s1.588-.597 2.562-.757c.974-.161 2.014-.242 3.119-.242 1.366 0 2.558.135 3.576.406 1.018.271 1.868.714 2.551 1.33.684.614 1.196 1.417 1.538 2.405.341.988.512 2.2.512 3.636v11.665c0 .63.051 1.15.153 1.56.102.41.261.74.48.988.218.25.505.425.861.528.357.102.782.154 1.276.154H285v1.889h-6.04l-.698-3.867h-.371a39.98 39.98 0 0 1-1.352 1.736 7.878 7.878 0 0 1-1.44 1.362 6.237 6.237 0 0 1-1.777.89c-.661.212-1.457.318-2.387.318a8.62 8.62 0 0 1-2.759-.428 5.802 5.802 0 0 1-2.202-1.318c-.618-.593-1.102-1.34-1.45-2.241-.35-.9-.524-1.966-.524-3.196 0-2.388.843-4.16 2.53-5.317 1.686-1.157 4.238-1.787 7.654-1.89l3.707-.131v-2.702c0-.806-.044-1.55-.131-2.23-.087-.681-.276-1.267-.567-1.758a2.935 2.935 0 0 0-1.254-1.142c-.546-.271-1.276-.407-2.192-.407zm-5.408 15.796c0 1.406.294 2.457.883 3.153.589.695 1.501 1.043 2.737 1.043.901 0 1.719-.146 2.453-.439a5.226 5.226 0 0 0 1.875-1.252c.516-.542.913-1.201 1.188-1.978.277-.776.415-1.64.415-2.592v-3.647l-2.857.132c-1.265.059-2.323.216-3.173.473-.85.256-1.537.615-2.06 1.076a3.86 3.86 0 0 0-1.124 1.703c-.225.673-.337 1.45-.337 2.328zM300.966 53H288v-1.846h.132c.511 0 .99-.036 1.437-.108a2.865 2.865 0 0 0 1.163-.44c.329-.221.592-.54.79-.955.197-.415.296-.966.296-1.653V34.281c0-.644-.099-1.163-.297-1.557a2.249 2.249 0 0 0-.8-.912 3.056 3.056 0 0 0-1.174-.43 8.938 8.938 0 0 0-1.415-.107H288V29.43h6.911l.856 4.358h.22c.292-.658.592-1.277.899-1.857a6.136 6.136 0 0 1 1.13-1.524c.446-.436.998-.78 1.656-1.03.658-.25 1.485-.376 2.48-.376 1.638 0 2.855.28 3.653.837.797.558 1.195 1.346 1.195 2.362 0 .458-.077.88-.23 1.266a2.47 2.47 0 0 1-.735.999c-.336.279-.768.494-1.295.644-.526.15-1.17.225-1.93.225 0-1.216-.176-2.093-.527-2.63-.351-.536-.965-.805-1.843-.805-.556 0-1.053.154-1.492.462a4.373 4.373 0 0 0-1.152 1.224 7.988 7.988 0 0 0-.834 1.75 15.64 15.64 0 0 0-.548 2.028c-.14.695-.238 1.385-.296 2.072a22.13 22.13 0 0 0-.088 1.868v6.912c0 .644.099 1.163.296 1.556a2.1 2.1 0 0 0 .8.891c.337.2.728.333 1.174.397a9.93 9.93 0 0 0 1.415.097h1.251V53z"/>
        </g>
    </g>
</svg>
